<?xml version="1.0" encoding="utf-8"?>
<!-- Generator: Adobe Illustrator 19.0.0, SVG Export Plug-In . SVG Version: 6.00 Build 0)  -->
<svg version="1.1"
	 id="svg3860" xmlns:rdf="http://www.w3.org/1999/02/22-rdf-syntax-ns#" xmlns:dc="http://purl.org/dc/elements/1.1/" xmlns:cc="http://creativecommons.org/ns#"
	 xmlns="http://www.w3.org/2000/svg" xmlns:xlink="http://www.w3.org/1999/xlink" x="0px" y="0px" viewBox="-289 197 32 400"
	 style="enable-background:new -289 197 32 400;" xml:space="preserve">
<style type="text/css">
	.st0{fill:#90D184;}
	.st1{fill:#E67A85;}
	.st2{fill:#FFFFFF;}
</style>
<path id="XMLID_9_" class="st0" d="M-262.2,500.7v25.9H-289v-26.8h25.9c0.9-0.6,1.7-1.2,2.4-1.6l0.5,0.9
	C-260.8,499.6-261.5,500.1-262.2,500.7z M-276.5,519.9l-0.8,0.5c-0.7,0.4-1.3,0.9-1.8,1.3c-0.1-0.4-0.3-1.1-0.7-2.1l-0.4-1
	c-0.9-2.2-1.7-3.8-2.3-4.7c-0.6-0.9-1.3-1.4-2-1.4c1-0.9,1.8-1.3,2.6-1.3c1,0,2.1,1.3,3.3,4l0.7,1.4c3.1-5.6,7.3-10.7,12.5-15h-21.8
	v23.2h23.2v-22.6c-2.8,2.6-5.3,5.4-7.5,8.6C-273.8,514-275.5,517-276.5,519.9z"/>
<path id="XMLID_5_" class="st1" d="M-289,425.8v-29h29v29H-289z M-287,423.9h25.1v-25.1H-287V423.9z M-274.5,410l7.5-7.5l1.4,1.4
	l-7.5,7.5l7.5,7.5l-1.4,1.4l-7.5-7.5l-7.5,7.5l-1.4-1.4l7.5-7.5l-7.5-7.5l1.4-1.4L-274.5,410z"/>
<path id="XMLID_1_" class="st2" d="M-289,226v-29h29v29H-289z M-287,224.1h25.1V199H-287V224.1z M-274.5,210.1l7.5-7.5l1.4,1.4
	l-7.5,7.5l7.5,7.5l-1.4,1.4l-7.5-7.5l-7.5,7.5l-1.4-1.4l7.5-7.5l-7.5-7.5l1.4-1.4L-274.5,210.1z"/>
<path id="XMLID_12_" class="st2" d="M-262.2,300.1V326H-289v-26.8h25.9c0.9-0.6,1.7-1.2,2.4-1.6l0.5,0.9
	C-260.8,299-261.5,299.5-262.2,300.1z M-276.5,319.3l-0.8,0.5c-0.7,0.4-1.3,0.9-1.8,1.3c-0.1-0.4-0.3-1.1-0.7-2.1l-0.4-1
	c-0.9-2.2-1.7-3.8-2.3-4.7c-0.6-0.9-1.3-1.4-2-1.4c1-0.9,1.8-1.3,2.6-1.3c1,0,2.1,1.3,3.3,4l0.7,1.4c3.1-5.6,7.3-10.7,12.5-15h-21.8
	v23.2h23.2v-22.6c-2.8,2.6-5.3,5.4-7.5,8.6C-273.8,313.4-275.5,316.4-276.5,319.3z"/>
</svg>
